<svg width="20" height="21" viewBox="0 0 20 21" fill="none" xmlns="http://www.w3.org/2000/svg">
<path fill-rule="evenodd" clip-rule="evenodd" d="M13.9621 19.972H5.61428C2.54792 19.972 0.195516 18.8644 0.863708 14.4067L1.64174 8.36555C2.05364 6.1413 3.4724 5.29004 4.71726 5.29004H14.8957C16.1589 5.29004 17.4953 6.20537 17.9713 8.36555L18.7493 14.4067C19.3168 18.361 17.0285 19.972 13.9621 19.972Z" stroke="black" stroke-width="1.5" stroke-linecap="round" stroke-linejoin="round"/>
<path d="M14.0995 5.07044C14.0995 2.68437 12.1652 0.750038 9.7791 0.750038C8.6301 0.745208 7.52649 1.19824 6.7123 2.00899C5.89811 2.81975 5.44043 3.92143 5.44043 5.07044" stroke="black" stroke-width="1.5" stroke-linecap="round" stroke-linejoin="round"/>
<path d="M12.7447 9.57397H12.699" stroke="black" stroke-width="1.5" stroke-linecap="round" stroke-linejoin="round"/>
<path d="M6.91393 9.57397H6.86816" stroke="black" stroke-width="1.5" stroke-linecap="round" stroke-linejoin="round"/>
</svg>
